#Comment line ignore any data following # character 
#Hierarchical Translation and Rotation (.htr) file 
[Header]	
#Header keywords are followed by a single value 
FileType HTR		#Single word string
DataType HTRS		#Translation followed by rotation and scale data
FileVersion 1		#integer
NumSegments 25		#integer
NumFrames 5		#integer
DataFrameRate 30		#integer, data frame rate in this file
EulerRotationOrder ZYX
CalibrationUnits mm
RotationUnits Degrees
GlobalAxisofGravity Y
BoneLengthAxis Y
ScaleFactor 1.00
[SegmentNames&Hierarchy]
#CHILD	PARENT
BN_Tick_Root GLOBAL
BN_Torso BN_Tick_Root
BN_L_Leg_Front01 BN_Torso
BN_L_Leg_Rear01 BN_Torso
BN_MetalTop BN_Torso
BN_Neck BN_Torso
BN_R_Leg_Front01 BN_Torso
BN_R_Leg_Rear01 BN_Torso
BN_Sack BN_Torso
BN_L_Leg_Front02 BN_L_Leg_Front01
BN_L_Leg_Front03 BN_L_Leg_Front02
BN_L_Leg_Rear02 BN_L_Leg_Rear01
BN_L_Leg_Rear03 BN_L_Leg_Rear02
BN_Head BN_Neck
BN_Needle BN_Head
BN_R_Leg_Front02 BN_R_Leg_Front01
BN_R_Leg_Front03 BN_R_Leg_Front02
BN_R_Leg_Rear02 BN_R_Leg_Rear01
BN_R_Leg_Rear03 BN_R_Leg_Rear02
BN_SackDef01 BN_Sack
BN_SackDef02 BN_Sack
BN_SackDef03 BN_Sack
BN_SackDef04 BN_Sack
BN_SackDef05 BN_Sack
BN_SackDef06 BN_Sack
[BasePosition]
#SegmentName Tx, Ty, Tz, Rx, Ry, Rz, BoneLength
BN_Tick_Root 0.000000 0.000000 0.000000 -90.000000 0.000000 0.000000 10.000000 
BN_Torso 0.000000 0.000000 0.000000 0.000000 0.000000 0.000000 10.000000 
BN_L_Leg_Front01 0.000000 0.000000 0.000000 0.000000 0.000000 0.000000 10.000000 
BN_L_Leg_Rear01 0.000000 0.000000 0.000000 0.000000 0.000000 0.000000 10.000000 
BN_MetalTop 0.000000 0.000000 0.000000 0.000000 0.000000 0.000000 10.000000 
BN_Neck 0.000000 0.000000 0.000000 0.000000 0.000000 0.000000 10.000000 
BN_R_Leg_Front01 0.000000 0.000000 0.000000 0.000000 0.000000 0.000000 10.000000 
BN_R_Leg_Rear01 0.000000 0.000000 0.000000 0.000000 0.000000 0.000000 10.000000 
BN_Sack 0.000000 0.000000 0.000000 0.000000 0.000000 0.000000 10.000000 
BN_L_Leg_Front02 0.000000 0.000000 0.000000 0.000000 0.000000 0.000000 10.000000 
BN_L_Leg_Front03 0.000000 0.000000 0.000000 0.000000 0.000000 0.000000 10.000000 
BN_L_Leg_Rear02 0.000000 0.000000 0.000000 0.000000 0.000000 0.000000 10.000000 
BN_L_Leg_Rear03 0.000000 0.000000 0.000000 0.000000 0.000000 0.000000 10.000000 
BN_Head 0.000000 0.000000 0.000000 0.000000 0.000000 0.000000 10.000000 
BN_Needle 0.000000 0.000000 0.000000 0.000000 0.000000 0.000000 10.000000 
BN_R_Leg_Front02 0.000000 0.000000 0.000000 0.000000 0.000000 0.000000 10.000000 
BN_R_Leg_Front03 0.000000 0.000000 0.000000 0.000000 0.000000 0.000000 10.000000 
BN_R_Leg_Rear02 0.000000 0.000000 0.000000 0.000000 0.000000 0.000000 10.000000 
BN_R_Leg_Rear03 0.000000 0.000000 0.000000 0.000000 0.000000 0.000000 10.000000 
BN_SackDef01 0.000000 0.000000 0.000000 0.000000 0.000000 0.000000 10.000000 
BN_SackDef02 0.000000 0.000000 0.000000 0.000000 0.000000 0.000000 10.000000 
BN_SackDef03 0.000000 0.000000 0.000000 0.000000 0.000000 0.000000 10.000000 
BN_SackDef04 0.000000 0.000000 0.000000 0.000000 0.000000 0.000000 10.000000 
BN_SackDef05 0.000000 0.000000 0.000000 0.000000 0.000000 0.000000 10.000000 
BN_SackDef06 0.000000 0.000000 0.000000 0.000000 0.000000 0.000000 10.000000 
#Beginning of Data. Separated by tabs
#Fr	Tx	Ty	Tz	Rx	Ry	Rz	SF
[BN_Tick_Root]
1 0.000000 0.000000 0.000000 0.000000 0.000000 -0.000020 0.000000
2 0.000000 125.000015 0.000000 0.000000 0.000000 -0.000020 125.000015
3 0.000000 250.000031 0.000000 0.000000 0.000000 -0.000020 250.000031
4 0.000000 375.000061 0.000000 0.000000 0.000000 -0.000020 375.000061
5 0.000000 500.000061 0.000000 0.000000 0.000000 -0.000020 500.000061
[BN_Torso]
1 -0.000000 48.370880 142.768173 -17.780100 0.001896 0.001383 150.739822
2 -2.948318 53.549931 156.014893 -17.781057 -0.831570 0.001603 164.975555
3 -12.795827 63.999146 165.134628 -17.782015 -1.665037 0.001836 177.564270
4 -19.786533 67.272423 153.080521 -17.782354 -2.496233 0.001688 168.376755
5 -20.886406 59.255474 130.042511 -17.782694 -3.327427 0.001544 144.424744
[BN_L_Leg_Front01]
1 -68.477791 10.734189 -26.804373 3.777949 18.800915 146.811386 74.316254
2 -68.477791 10.734189 -26.804373 2.850367 15.587520 173.048355 74.316254
3 -68.477791 10.734189 -26.804373 -3.006786 11.971040 -161.614578 74.316254
4 -68.477791 10.734189 -26.804373 -12.367981 10.976136 -136.833572 74.316254
5 -68.477791 10.734189 -26.804373 -5.590382 -12.539165 -160.274979 74.316254
[BN_L_Leg_Rear01]
1 -72.133743 -73.994843 -18.268616 142.321533 21.681149 -126.172363 104.939293
2 -72.133743 -73.994843 -18.268616 107.448975 17.887712 -118.479889 104.939293
3 -72.133743 -73.994843 -18.268616 132.819977 6.770002 -144.327560 104.939293
4 -72.133743 -73.994843 -18.268616 114.423820 -4.841131 -173.650558 104.939293
5 -72.133743 -73.994843 -18.268616 141.290955 15.487514 -162.824173 104.939293
[BN_MetalTop]
1 0.000008 13.737477 26.403606 87.861610 -9.826873 -84.964806 29.763546
2 0.000008 13.737477 26.403606 87.294800 -12.214802 -82.509674 29.763546
3 0.000008 13.737477 26.403606 87.135078 -14.004041 -82.613258 29.763546
4 0.000008 13.737477 26.403606 87.192535 -17.349432 -83.694855 29.763546
5 0.000008 13.737477 26.403606 87.891937 -14.949751 -86.050133 29.763546
[BN_Neck]
1 0.000014 95.233284 10.002091 -89.999672 -65.297531 89.999657 95.757088
2 0.000014 95.233284 10.002091 -89.999672 -65.297531 89.999657 95.757088
3 0.000014 95.233284 10.002091 -89.999672 -65.297531 89.999657 95.757088
4 0.000014 95.233284 10.002091 -89.999672 -65.297531 89.999657 95.757088
5 0.000014 95.233284 10.002091 -89.999672 -65.297531 89.999657 95.757088
[BN_R_Leg_Front01]
1 68.477768 10.734107 -26.804314 12.263733 8.139259 -43.792873 74.316193
2 68.477768 10.734107 -26.804314 5.594025 -12.540196 -19.725527 74.316193
3 68.477768 10.734107 -26.804314 -18.790401 -9.668374 17.745495 74.316193
4 68.477768 10.734107 -26.804314 -3.775118 18.798376 33.189011 74.316193
5 68.477768 10.734107 -26.804314 -20.169050 18.991478 1.538552 74.316193
[BN_R_Leg_Rear01]
1 72.133751 -73.994873 -18.268644 -112.581543 -10.310433 -5.319738 104.939331
2 72.133751 -73.994873 -18.268644 -141.288956 15.484636 -17.176611 104.939331
3 72.133751 -73.994873 -18.268644 -135.279572 19.420008 -39.815681 104.939331
4 72.133751 -73.994873 -18.268644 -142.318558 21.679100 -53.828068 104.939331
5 72.133751 -73.994873 -18.268644 -107.447868 17.889812 -61.518990 104.939331
[BN_Sack]
1 -0.000000 -78.024918 33.657791 87.959702 -2.924654 -82.623863 84.974907
2 -0.000000 -78.024918 33.657791 87.650543 -5.315325 -80.408257 84.974907
3 -0.000000 -78.024918 33.657791 87.475494 -7.103875 -80.717331 84.974907
4 -0.000000 -78.024918 33.657791 87.375618 -10.447132 -81.983017 84.974907
5 -0.000000 -78.024918 33.657791 87.851479 -8.059898 -84.457520 84.974907
[BN_L_Leg_Front02]
1 142.805023 -0.000015 -0.000104 -91.768524 -45.293869 -54.149811 142.805023
2 142.805023 -0.000015 -0.000104 -61.286659 -55.479462 -106.134575 142.805023
3 142.805023 -0.000015 -0.000104 -71.641029 -44.296276 -125.300697 142.805023
4 142.805023 -0.000015 -0.000104 -80.000557 -23.251997 -134.229691 142.805023
5 142.805023 -0.000015 -0.000104 -47.051010 -85.133812 -165.638641 142.805023
[BN_L_Leg_Front03]
1 124.143021 -0.000045 0.000007 0.353494 -0.273295 37.079697 124.143021
2 124.143021 -0.000045 0.000007 0.354278 -0.450772 92.120209 124.143021
3 124.143021 -0.000045 0.000007 0.353709 -0.386520 120.526596 124.143021
4 124.143021 -0.000045 0.000007 0.355840 -0.296150 138.877106 124.143021
5 124.143021 -0.000045 0.000007 0.353542 -0.266496 144.001938 124.143021
[BN_L_Leg_Rear02]
1 139.939041 0.000075 -0.000022 -35.372932 -20.032698 79.031036 139.939041
2 139.939041 0.000075 -0.000022 20.985786 -36.912834 8.156199 139.939041
3 139.939041 0.000075 -0.000022 -65.548431 30.686152 10.390698 139.939041
4 139.939041 0.000075 -0.000022 -60.459682 52.886497 0.125347 139.939041
5 139.939041 0.000075 -0.000022 -71.366753 22.476055 83.091820 139.939041
[BN_L_Leg_Rear03]
1 142.839615 0.000179 -0.000060 0.000168 -0.002341 -98.217529 142.839615
2 142.839615 0.000179 -0.000060 0.000853 0.002187 -47.402885 142.839615
3 142.839615 0.000179 -0.000060 0.000339 -0.002323 -106.608078 142.839615
4 142.839615 0.000179 -0.000060 0.000813 -0.002202 -130.552719 142.839615
5 142.839615 0.000179 -0.000060 0.000552 -0.002281 -117.206543 142.839615
[BN_Head]
1 57.062447 -0.000030 0.000000 0.001823 0.001479 11.877728 57.062447
2 57.062447 -0.000030 0.000000 0.677536 0.485646 11.880613 57.062447
3 57.062447 -0.000030 0.000000 1.353418 0.969797 11.889209 57.062447
4 57.062447 -0.000030 0.000000 2.029493 1.453812 11.903521 57.062447
5 57.062447 -0.000030 0.000000 2.705786 1.937572 11.923542 57.062447
[BN_Needle]
1 33.915161 69.677544 -0.000060 0.000003 0.000030 87.896805 77.493217
2 33.915161 69.677544 -0.000060 0.000003 0.000030 87.896805 77.493217
3 33.915161 69.677544 -0.000060 0.000003 0.000030 87.896805 77.493217
4 33.915161 69.677544 -0.000060 0.000003 0.000030 87.896805 77.493217
5 33.915161 69.677544 -0.000060 0.000003 0.000030 87.896805 77.493217
[BN_R_Leg_Front02]
1 142.804947 -0.000060 0.000060 80.096581 -26.731798 127.614433 142.804947
2 142.804947 -0.000060 0.000060 91.697769 -57.493439 113.624245 142.804947
3 142.804947 -0.000060 0.000060 -147.466583 -39.262726 -51.044407 142.804947
4 142.804947 -0.000060 0.000060 105.249519 -48.954273 42.745296 142.804947
5 142.804947 -0.000060 0.000060 47.346905 -74.677803 121.782738 142.804947
[BN_R_Leg_Front03]
1 124.143005 -0.000060 -0.000156 -0.352501 -0.327904 -132.665863 124.143005
2 124.143005 -0.000060 -0.000156 -0.355401 -0.343350 -129.847778 124.143005
3 124.143005 -0.000060 -0.000156 -0.354511 -0.373212 -123.774002 124.143005
4 124.143005 -0.000060 -0.000156 -0.354723 -0.345640 -50.439663 124.143005
5 124.143005 -0.000060 -0.000156 -0.354855 -0.447492 -89.581139 124.143005
[BN_R_Leg_Rear02]
1 139.939011 -0.000149 0.000015 62.541721 39.738983 6.625654 139.939011
2 139.939011 -0.000149 0.000015 74.459335 3.796013 -71.128731 139.939011
3 139.939011 -0.000149 0.000015 52.727821 -31.126211 -95.893967 139.939011
4 139.939011 -0.000149 0.000015 30.749153 -27.117817 -66.724792 139.939011
5 139.939011 -0.000149 0.000015 -24.316168 -34.945255 -3.353185 139.939011
[BN_R_Leg_Rear03]
1 142.839417 0.000075 0.000119 0.002263 -0.000625 120.881287 142.839417
2 142.839417 0.000075 0.000119 0.002338 -0.000203 99.909927 142.839417
3 142.839417 0.000075 0.000119 0.002339 -0.000191 99.327240 142.839417
4 142.839417 0.000075 0.000119 0.002343 0.000141 83.115105 142.839417
5 142.839417 0.000075 0.000119 0.002101 0.001047 37.012474 142.839417
[BN_SackDef01]
1 249.782272 -3.760844 42.949425 -128.408218 -44.374973 -11.740845 253.475800
2 249.782272 -3.760844 42.949425 -128.408218 -44.374973 -11.740845 253.475800
3 249.782272 -3.760844 42.949425 -128.408218 -44.374973 -11.740845 253.475800
4 249.782272 -3.760844 42.949425 -128.408218 -44.374973 -11.740845 253.475800
5 249.782272 -3.760844 42.949425 -128.408218 -44.374973 -11.740845 253.475800
[BN_SackDef02]
1 138.789795 -62.131748 45.674385 32.077126 -27.375721 -88.781525 158.773758
2 138.789795 -62.131748 45.674385 32.077126 -27.375721 -88.781525 158.773758
3 138.789795 -62.131748 45.674385 32.077126 -27.375721 -88.781525 158.773758
4 138.789795 -62.131748 45.674385 32.077126 -27.375721 -88.781525 158.773758
5 138.789795 -62.131748 45.674385 32.077126 -27.375721 -88.781525 158.773758
[BN_SackDef03]
1 249.782272 -3.760785 -42.949661 18.144459 44.375008 -11.740894 253.475845
2 249.782272 -3.760785 -42.949661 18.144459 44.375008 -11.740894 253.475845
3 249.782272 -3.760785 -42.949661 18.144459 44.375008 -11.740894 253.475845
4 249.782272 -3.760785 -42.949661 18.144459 44.375008 -11.740894 253.475845
5 249.782272 -3.760785 -42.949661 18.144459 44.375008 -11.740894 253.475845
[BN_SackDef04]
1 138.789780 -62.131645 -45.674473 146.059982 27.375723 -88.781555 158.773743
2 138.789780 -62.131645 -45.674473 146.059982 27.375723 -88.781555 158.773743
3 138.789780 -62.131645 -45.674473 146.059982 27.375723 -88.781555 158.773743
4 138.789780 -62.131645 -45.674473 146.059982 27.375723 -88.781555 158.773743
5 138.789780 -62.131645 -45.674473 146.059982 27.375723 -88.781555 158.773743
[BN_SackDef05]
1 118.790161 46.167137 -63.831196 0.155741 51.314110 90.605110 142.537460
2 118.790161 46.167137 -63.831196 0.155741 51.314110 90.605110 142.537460
3 118.790161 46.167137 -63.831196 0.155741 51.314110 90.605110 142.537460
4 118.790161 46.167137 -63.831196 0.155741 51.314110 90.605110 142.537460
5 118.790161 46.167137 -63.831196 0.155741 51.314110 90.605110 142.537460
[BN_SackDef06]
1 118.790207 46.167194 63.831219 152.058487 -51.314072 90.605019 142.537537
2 118.790207 46.167194 63.831219 152.058487 -51.314072 90.605019 142.537537
3 118.790207 46.167194 63.831219 152.058487 -51.314072 90.605019 142.537537
4 118.790207 46.167194 63.831219 152.058487 -51.314072 90.605019 142.537537
5 118.790207 46.167194 63.831219 152.058487 -51.314072 90.605019 142.537537
